# Blender v3.0.1 OBJ File: 'EnemyStem.blend'
# www.blender.org
mtllib EnemyStem.mtl
o Icosphere.004_Icosphere.011
v 0.146833 0.385006 0.075614
v 0.211075 0.749430 0.146832
v 0.042137 0.696368 0.260266
v -0.114278 0.651822 0.126950
v -0.042007 0.677350 -0.068877
v 0.159071 0.737677 -0.056588
v -0.010338 1.241482 0.242184
v -0.211416 1.181156 0.229895
v -0.263419 1.169403 0.026476
v -0.094482 1.222465 -0.086958
v 0.061933 1.267011 0.046357
v -0.199178 1.533827 0.097693
v 0.115669 0.467170 0.182211
v 0.214967 0.498359 0.115537
v 0.153429 0.681374 0.224072
v 0.222160 0.705655 0.037831
v 0.184401 0.491451 -0.004030
v 0.023731 0.440987 0.103851
v -0.037809 0.624001 0.212386
v 0.066211 0.455992 -0.011253
v -0.087267 0.612823 0.018921
v 0.073404 0.663287 -0.088960
v 0.165065 1.016790 0.098340
v 0.134498 1.009882 -0.021227
v 0.023286 0.970595 0.280119
v 0.122586 1.001784 0.213445
v -0.186843 0.908951 0.194534
v -0.094905 0.935136 0.272896
v -0.174931 0.917049 -0.040137
v -0.217409 0.902043 0.074968
v 0.042560 0.983697 -0.099589
v -0.075631 0.948238 -0.106812
v 0.034923 1.306010 0.154386
v -0.125748 1.255546 0.262267
v -0.274505 1.213178 0.135477
v -0.205774 1.237459 -0.050764
v -0.014536 1.294832 -0.039078
v -0.118555 1.462840 0.184560
v -0.076075 1.477845 0.069457
v -0.236745 1.427382 0.177337
v -0.267312 1.420473 0.057771
v -0.168014 1.451662 -0.008903
vt 0.181819 0.000000
vt 0.227273 0.078731
vt 0.136365 0.078731
vt 0.272728 0.157461
vt 0.318182 0.078731
vt 0.363637 0.157461
vt 0.909091 0.000000
vt 0.954545 0.078731
vt 0.863636 0.078731
vt 0.727273 0.000000
vt 0.772727 0.078731
vt 0.681818 0.078731
vt 0.545455 0.000000
vt 0.590909 0.078731
vt 0.500000 0.078731
vt 0.318182 0.236191
vt 0.090910 0.157461
vt 0.181819 0.157461
vt 0.136365 0.236191
vt 0.818182 0.157461
vt 0.909091 0.157461
vt 0.863636 0.236191
vt 0.636364 0.157461
vt 0.727273 0.157461
vt 0.681818 0.236191
vt 0.454546 0.157461
vt 0.545455 0.157461
vt 0.500000 0.236191
vt 0.227273 0.236191
vt 0.045455 0.236191
vt 0.772727 0.236191
vt 0.590909 0.236191
vt 0.409092 0.236191
vt 0.181819 0.314921
vt 0.272728 0.314921
vt 0.227273 0.393651
vt 0.000000 0.314921
vt 0.090910 0.314921
vt 0.045455 0.393651
vt 0.727273 0.314921
vt 0.818182 0.314921
vt 0.772727 0.393651
vt 0.545455 0.314921
vt 0.636364 0.314921
vt 0.590909 0.393651
vt 0.363637 0.314921
vt 0.454546 0.314921
vt 0.409092 0.393651
vt 0.500000 0.393651
vt 0.454546 0.472382
vt 0.681818 0.393651
vt 0.636364 0.472382
vt 0.863636 0.393651
vt 0.818182 0.472382
vt 0.909091 0.314921
vt 0.136365 0.393651
vt 0.090910 0.472382
vt 0.318182 0.393651
vt 0.272728 0.472382
vt 0.954545 0.236191
vt 1.000000 0.157461
vt 0.409092 0.078731
vt 0.363637 0.000000
vn 0.5764 -0.5570 0.5979
vn 0.9950 0.0030 0.1000
vn -0.2388 -0.8016 0.5481
vn -0.4497 -0.8493 -0.2767
vn 0.2353 -0.6341 -0.7366
vn 0.9842 0.1748 0.0299
vn 0.3031 -0.0481 0.9518
vn -0.7507 -0.3578 0.5554
vn -0.7208 -0.3264 -0.6115
vn 0.3514 0.0028 -0.9362
vn 0.9051 0.2216 0.3629
vn -0.0385 -0.0748 0.9965
vn -0.9121 -0.3236 0.2519
vn -0.5084 -0.1810 -0.8419
vn 0.6146 0.1559 -0.7732
vn 0.6015 0.4635 0.6507
vn -0.4547 0.1409 0.8794
vn -0.9950 -0.0030 -0.1000
vn -0.2727 0.2306 -0.9341
vn 0.7140 0.5189 -0.4701
vn 0.2388 0.8016 -0.5481
vn 0.4374 0.5630 -0.7013
vn 0.2038 0.3736 -0.9049
vn -0.5764 0.5570 -0.5979
vn -0.5929 0.2539 -0.7642
vn -0.8237 0.0575 -0.5641
vn -0.8694 0.4535 0.1961
vn -0.9632 0.1231 0.2391
vn -0.8254 0.0354 0.5635
vn -0.2353 0.6341 0.7366
vn -0.1618 0.3513 0.9222
vn 0.2012 0.3377 0.9195
vn 0.4497 0.8493 0.2767
vn 0.7038 0.6232 0.3410
vn 0.8372 0.5467 0.0120
vn 0.7507 0.3578 -0.5554
vn 0.5835 0.2569 -0.7704
vn 0.3311 0.2383 -0.9130
vn -0.3031 0.0481 -0.9518
vn -0.5383 -0.0796 -0.8390
vn -0.7562 -0.0943 -0.6475
vn -0.9842 -0.1748 -0.0299
vn -0.9415 -0.2221 0.2535
vn -0.8446 -0.1433 0.5158
vn -0.3514 -0.0028 0.9362
vn -0.0689 0.0265 0.9973
vn 0.1880 0.1591 0.9692
vn 0.7208 0.3264 0.6115
vn 0.8736 0.3225 0.3644
vn 0.9147 0.3949 0.0861
vn 0.0385 0.0748 -0.9965
vn 0.0689 -0.0265 -0.9973
vn -0.1880 -0.1591 -0.9692
vn -0.9051 -0.2216 -0.3629
vn -0.8736 -0.3225 -0.3644
vn -0.9147 -0.3949 -0.0861
vn -0.6146 -0.1559 0.7732
vn -0.5835 -0.2569 0.7704
vn -0.3311 -0.2383 0.9130
vn 0.5084 0.1810 0.8419
vn 0.5383 0.0796 0.8390
vn 0.7562 0.0943 0.6475
vn 0.9121 0.3236 -0.2519
vn 0.9415 0.2221 -0.2535
vn 0.8446 0.1433 -0.5158
vn 0.4547 -0.1409 -0.8794
vn 0.1618 -0.3513 -0.9222
vn -0.2012 -0.3377 -0.9195
vn -0.6015 -0.4635 -0.6507
vn -0.7038 -0.6232 -0.3410
vn -0.8372 -0.5467 -0.0120
vn -0.7140 -0.5189 0.4701
vn -0.4374 -0.5630 0.7013
vn -0.2038 -0.3736 0.9049
vn 0.8254 -0.0354 -0.5635
vn 0.9632 -0.1231 -0.2391
vn 0.8694 -0.4535 -0.1961
vn 0.2727 -0.2306 0.9341
vn 0.5929 -0.2539 0.7642
vn 0.8237 -0.0575 0.5641
usemtl None
s off
f 1/1/1 14/2/1 13/3/1
f 2/4/2 14/5/2 16/6/2
f 1/7/3 13/8/3 18/9/3
f 1/10/4 18/11/4 20/12/4
f 1/13/5 20/14/5 17/15/5
f 2/4/6 16/6/6 23/16/6
f 3/17/7 15/18/7 25/19/7
f 4/20/8 19/21/8 27/22/8
f 5/23/9 21/24/9 29/25/9
f 6/26/10 22/27/10 31/28/10
f 2/4/11 23/16/11 26/29/11
f 3/17/12 25/19/12 28/30/12
f 4/20/13 27/22/13 30/31/13
f 5/23/14 29/25/14 32/32/14
f 6/26/15 31/28/15 24/33/15
f 7/34/16 33/35/16 38/36/16
f 8/37/17 34/38/17 40/39/17
f 9/40/18 35/41/18 41/42/18
f 10/43/19 36/44/19 42/45/19
f 11/46/20 37/47/20 39/48/20
f 39/48/21 42/49/21 12/50/21
f 39/48/22 37/47/22 42/49/22
f 37/47/23 10/43/23 42/49/23
f 42/45/24 41/51/24 12/52/24
f 42/45/25 36/44/25 41/51/25
f 36/44/26 9/40/26 41/51/26
f 41/42/27 40/53/27 12/54/27
f 41/42/28 35/41/28 40/53/28
f 35/41/29 8/55/29 40/53/29
f 40/39/30 38/56/30 12/57/30
f 40/39/31 34/38/31 38/56/31
f 34/38/32 7/34/32 38/56/32
f 38/36/33 39/58/33 12/59/33
f 38/36/34 33/35/34 39/58/34
f 33/35/35 11/46/35 39/58/35
f 24/33/36 37/47/36 11/46/36
f 24/33/37 31/28/37 37/47/37
f 31/28/38 10/43/38 37/47/38
f 32/32/39 36/44/39 10/43/39
f 32/32/40 29/25/40 36/44/40
f 29/25/41 9/40/41 36/44/41
f 30/31/42 35/41/42 9/40/42
f 30/31/43 27/22/43 35/41/43
f 27/22/44 8/55/44 35/41/44
f 28/30/45 34/38/45 8/37/45
f 28/30/46 25/19/46 34/38/46
f 25/19/47 7/34/47 34/38/47
f 26/29/48 33/35/48 7/34/48
f 26/29/49 23/16/49 33/35/49
f 23/16/50 11/46/50 33/35/50
f 31/28/51 32/32/51 10/43/51
f 31/28/52 22/27/52 32/32/52
f 22/27/53 5/23/53 32/32/53
f 29/25/54 30/31/54 9/40/54
f 29/25/55 21/24/55 30/31/55
f 21/24/56 4/20/56 30/31/56
f 27/22/57 28/60/57 8/55/57
f 27/22/58 19/21/58 28/60/58
f 19/21/59 3/61/59 28/60/59
f 25/19/60 26/29/60 7/34/60
f 25/19/61 15/18/61 26/29/61
f 15/18/62 2/4/62 26/29/62
f 23/16/63 24/33/63 11/46/63
f 23/16/64 16/6/64 24/33/64
f 16/6/65 6/26/65 24/33/65
f 17/15/66 22/27/66 6/26/66
f 17/15/67 20/14/67 22/27/67
f 20/14/68 5/23/68 22/27/68
f 20/12/69 21/24/69 5/23/69
f 20/12/70 18/11/70 21/24/70
f 18/11/71 4/20/71 21/24/71
f 18/9/72 19/21/72 4/20/72
f 18/9/73 13/8/73 19/21/73
f 13/8/74 3/61/74 19/21/74
f 16/6/75 17/62/75 6/26/75
f 16/6/76 14/5/76 17/62/76
f 14/5/77 1/63/77 17/62/77
f 13/3/78 15/18/78 3/17/78
f 13/3/79 14/2/79 15/18/79
f 14/2/80 2/4/80 15/18/80
